<svg width="798" height="835" viewBox="0 0 798 835" fill="none" xmlns="http://www.w3.org/2000/svg">
<g clip-path="url(#clip0_27_2)">
<path d="M308.5 834.5C478.88 834.5 617 810.1 617 780C617 749.9 478.88 725.5 308.5 725.5C138.12 725.5 0 749.9 0 780C0 810.1 138.12 834.5 308.5 834.5Z" fill="#0EFAA8"/>
<path d="M496 603C662.514 603 797.5 468.014 797.5 301.5C797.5 134.986 662.514 0 496 0C329.486 0 194.5 134.986 194.5 301.5C194.5 468.014 329.486 603 496 603Z" fill="#222224"/>
<path opacity="0.05" d="M496 550.398C633.462 550.398 744.898 438.962 744.898 301.5C744.898 164.038 633.462 52.6021 496 52.6021C358.537 52.6021 247.102 164.038 247.102 301.5C247.102 438.962 358.537 550.398 496 550.398Z" fill="black"/>
<path opacity="0.05" d="M496 505.494C608.663 505.494 699.994 414.163 699.994 301.5C699.994 188.837 608.663 97.5064 496 97.5064C383.337 97.5064 292.006 188.837 292.006 301.5C292.006 414.163 383.337 505.494 496 505.494Z" fill="black"/>
<path opacity="0.05" d="M496 447.76C576.777 447.76 642.26 382.277 642.26 301.5C642.26 220.723 576.777 155.24 496 155.24C415.223 155.24 349.74 220.723 349.74 301.5C349.74 382.277 415.223 447.76 496 447.76Z" fill="black"/>
<path d="M197.17 328.482C197.17 328.482 173.466 395.204 184.001 418.908C194.536 442.612 211.217 465.438 211.217 465.438C211.217 465.438 205.071 332.872 197.17 328.482Z" fill="#D0CDE1"/>
<path d="M197.17 328.482C197.17 328.482 173.466 395.204 184.001 418.908C194.536 442.612 211.217 465.438 211.217 465.438C211.217 465.438 205.071 332.872 197.17 328.482Z" fill="white"/>
<path d="M213.851 482.997C213.851 482.997 212.095 499.677 211.217 500.555C210.339 501.433 212.095 503.189 211.217 505.823C210.339 508.457 209.461 511.968 211.217 512.846C212.973 513.724 201.56 590.981 201.56 590.981C201.56 590.981 173.466 627.854 184.88 685.797L188.391 744.618C188.391 744.618 215.607 746.374 215.607 736.717C215.607 736.717 213.851 725.304 213.851 720.036C213.851 714.769 218.241 714.769 215.607 712.135C212.973 709.501 212.973 707.745 212.973 707.745C212.973 707.745 217.363 704.234 216.485 703.356C215.607 702.478 224.386 640.145 224.386 640.145C224.386 640.145 234.043 630.488 234.043 625.22V619.953C234.043 619.953 238.433 608.54 238.433 607.662C238.433 606.784 262.137 553.231 262.137 553.231L271.794 591.859L282.329 647.169C282.329 647.169 287.597 697.21 298.132 716.525C298.132 716.525 316.568 779.735 316.568 777.979C316.568 776.223 347.295 771.834 346.417 763.932C345.54 756.031 327.981 645.413 327.981 645.413L332.371 481.241L213.851 482.997Z" fill="#2F2E41"/>
<path d="M190.147 740.228C190.147 740.228 166.443 786.758 182.246 788.514C198.048 790.27 204.194 790.27 211.217 783.247C215.057 779.407 222.832 774.255 229.093 770.374C232.802 768.111 235.799 764.849 237.739 760.961C239.679 757.073 240.484 752.717 240.062 748.392C239.599 744.097 237.994 740.558 234.043 740.228C223.508 739.351 211.217 729.693 211.217 729.693L190.147 740.228Z" fill="#2F2E41"/>
<path d="M320.957 774.467C320.957 774.467 297.254 820.997 313.056 822.753C328.859 824.509 335.004 824.509 342.028 817.486C345.867 813.646 353.643 808.494 359.903 804.613C363.613 802.35 366.609 799.088 368.549 795.2C370.489 791.312 371.295 786.956 370.872 782.631C370.409 778.336 368.804 774.797 364.854 774.467C354.319 773.59 342.028 763.932 342.028 763.932L320.957 774.467Z" fill="#2F2E41"/>
<path d="M295.905 252.337C316.287 252.337 332.81 235.814 332.81 215.433C332.81 195.051 316.287 178.528 295.905 178.528C275.523 178.528 259 195.051 259 215.433C259 235.814 275.523 252.337 295.905 252.337Z" fill="#FFB8B8"/>
<path d="M272.181 227.558C272.181 227.558 245.82 276.062 243.711 276.062C241.603 276.062 291.16 291.878 291.16 291.878C291.16 291.878 304.868 245.483 306.976 241.266L272.181 227.558Z" fill="#FFB8B8"/>
<path d="M312.617 280.635C312.617 280.635 259.942 251.664 254.674 252.542C249.407 253.42 193.22 302.583 194.098 322.776C194.976 342.968 201.999 376.329 201.999 376.329C201.999 376.329 204.633 469.389 209.9 470.267C215.168 471.145 209.022 486.947 210.778 486.947C212.534 486.947 333.687 486.947 334.565 484.314C335.443 481.68 312.617 280.635 312.617 280.635Z" fill="white"/>
<path d="M254.756 253.035C254.977 252.998 255.405 253.035 256.075 253.198C256.725 253.356 257.542 253.616 258.505 253.967C260.432 254.668 262.908 255.721 265.743 257.015C271.411 259.603 278.481 263.138 285.392 266.704C292.302 270.269 299.049 273.861 304.068 276.562C306.577 277.913 308.654 279.041 310.104 279.831C310.829 280.226 311.398 280.537 311.785 280.749C311.933 280.83 312.055 280.898 312.149 280.949C312.159 281.035 312.172 281.141 312.186 281.268C312.229 281.649 312.293 282.214 312.376 282.95C312.543 284.423 312.788 286.585 313.099 289.336C313.722 294.838 314.61 302.701 315.673 312.145C317.8 331.034 320.625 356.247 323.423 381.542C326.222 406.837 328.993 432.214 331.009 451.43C332.017 461.039 332.837 469.106 333.376 474.852C333.646 477.726 333.847 480.017 333.965 481.629C334.025 482.435 334.062 483.068 334.08 483.516C334.088 483.741 334.091 483.915 334.089 484.038L334.088 484.041C334.062 484.05 334.03 484.063 333.993 484.074C333.771 484.141 333.434 484.212 332.973 484.283C332.057 484.425 330.726 484.559 329.03 484.684C325.64 484.936 320.837 485.152 315.084 485.337C303.581 485.707 288.304 485.953 272.996 486.118C243.412 486.436 213.726 486.446 210.967 486.446C210.961 486.399 210.955 486.336 210.953 486.255C210.944 485.873 211.011 485.293 211.134 484.546C211.256 483.807 211.426 482.941 211.609 481.996C211.791 481.054 211.984 480.04 212.15 479.016C212.48 476.982 212.71 474.865 212.509 473.184C212.409 472.343 212.195 471.568 211.796 470.961C211.386 470.336 210.787 469.907 209.982 469.773C209.97 469.769 209.909 469.741 209.806 469.61C209.686 469.458 209.55 469.218 209.404 468.873C209.113 468.186 208.822 467.176 208.537 465.872C207.966 463.269 207.433 459.582 206.94 455.163C205.954 446.329 205.131 434.625 204.473 422.94C203.815 411.257 203.322 399.601 202.993 390.865C202.828 386.497 202.705 382.859 202.623 380.313C202.581 379.041 202.55 378.041 202.53 377.359C202.52 377.019 202.511 376.758 202.506 376.582C202.504 376.494 202.502 376.427 202.5 376.383C202.5 376.36 202.5 376.343 202.5 376.332C202.499 376.326 202.499 376.322 202.499 376.319C202.498 376.318 202.499 376.317 202.499 376.316C202.499 376.316 202.498 376.315 201.999 376.329L202.499 376.315L202.498 376.27L202.488 376.226V376.225V376.224C202.488 376.223 202.487 376.222 202.487 376.221C202.486 376.217 202.485 376.21 202.483 376.202C202.48 376.186 202.475 376.162 202.468 376.131C202.455 376.067 202.435 375.973 202.41 375.848C202.358 375.6 202.282 375.232 202.185 374.757C201.992 373.806 201.714 372.425 201.378 370.705C200.707 367.265 199.803 362.467 198.871 357.04C197.005 346.178 195.035 332.816 194.597 322.754C194.492 320.34 195.241 317.446 196.689 314.2C198.134 310.961 200.259 307.409 202.861 303.693C208.065 296.262 215.151 288.218 222.439 280.765C229.725 273.315 237.203 266.467 243.185 261.43C246.177 258.91 248.79 256.847 250.815 255.389C251.828 254.66 252.688 254.087 253.371 253.684C254.075 253.269 254.53 253.073 254.756 253.035Z" stroke="black" stroke-opacity="0.32"/>
<path d="M342.028 489.142C342.028 489.142 358.708 540.062 344.661 538.306C330.615 536.55 324.469 494.41 324.469 494.41L342.028 489.142Z" fill="#FFB8B8"/>
<path d="M297.253 277.563C297.253 277.563 264.77 284.586 270.038 328.482C275.305 372.378 284.962 416.275 284.962 416.275L317.446 487.386L320.957 500.555L344.661 494.41L327.103 392.571C327.103 392.571 320.957 283.708 313.056 280.196C308.073 278.072 302.656 277.169 297.253 277.563Z" fill="white"/>
<path d="M297.323 278.059C302.632 277.678 307.956 278.566 312.853 280.653V280.654C312.997 280.718 313.182 280.863 313.398 281.137C313.612 281.408 313.835 281.78 314.065 282.255C314.526 283.207 314.988 284.523 315.446 286.167C316.363 289.452 317.247 293.971 318.09 299.315C319.774 309.998 321.283 323.922 322.545 337.746C323.806 351.568 324.821 365.282 325.521 375.54C325.87 380.669 326.141 384.935 326.324 387.917C326.416 389.408 326.486 390.579 326.533 391.376C326.557 391.775 326.574 392.081 326.586 392.287C326.592 392.39 326.597 392.468 326.6 392.52C326.601 392.546 326.602 392.566 326.603 392.579C326.603 392.586 326.603 392.591 326.604 392.594C326.604 392.596 326.603 392.597 326.604 392.598C326.605 392.599 326.628 392.597 327.103 392.571L326.604 392.599L326.605 392.627L326.61 392.656L344.091 494.041L321.312 499.947L317.929 487.258L317.918 487.217L317.9 487.179L285.438 416.114C285.434 416.094 285.429 416.07 285.423 416.04C285.404 415.956 285.378 415.831 285.342 415.665C285.27 415.334 285.163 414.841 285.026 414.198C284.752 412.914 284.355 411.028 283.861 408.629C282.874 403.831 281.503 396.974 279.967 388.747C276.895 372.292 273.166 350.356 270.534 328.423C267.918 306.619 274.676 294.047 282.019 286.92C285.699 283.348 289.544 281.127 292.467 279.801C293.928 279.138 295.157 278.7 296.019 278.427C296.449 278.291 296.787 278.196 297.017 278.136C297.131 278.106 297.219 278.084 297.276 278.071C297.295 278.066 297.311 278.062 297.323 278.059Z" stroke="black" stroke-opacity="0.27"/>
<path opacity="0.1" d="M277.5 414.958L317.885 486.947L283.86 411.09L277.5 414.958Z" fill="white"/>
<path d="M332.646 204.566L332.768 201.746L338.378 203.142C338.318 202.237 338.062 201.355 337.628 200.558C337.194 199.762 336.592 199.068 335.864 198.527L341.84 198.193C336.825 191.067 330.419 185.032 323.007 180.451C315.595 175.87 307.331 172.839 298.715 171.541C285.79 169.668 271.397 172.379 262.533 181.972C258.234 186.625 255.533 192.542 253.611 198.579C250.072 209.697 249.351 222.951 256.731 231.988C264.231 241.173 277.333 242.972 289.137 244.109C293.29 244.509 297.642 244.881 301.491 243.27C301.92 238.855 301.354 234.401 299.837 230.233C299.206 228.943 298.904 227.516 298.959 226.081C299.483 222.569 304.167 221.684 307.686 222.159C311.205 222.633 315.436 223.359 317.748 220.664C319.341 218.808 319.247 216.105 319.458 213.669C320.032 207.035 332.586 205.957 332.646 204.566Z" fill="#2F2E41"/>
<path d="M559 787.5C582.748 787.5 602 768.248 602 744.5C602 720.752 582.748 701.5 559 701.5C535.252 701.5 516 720.752 516 744.5C516 768.248 535.252 787.5 559 787.5Z" fill="#0D9421"/>
<path d="M54 772.5C77.7482 772.5 97 753.248 97 729.5C97 705.752 77.7482 686.5 54 686.5C30.2518 686.5 11 705.752 11 729.5C11 753.248 30.2518 772.5 54 772.5Z" fill="#0D9421"/>
<path d="M54 703.5C71.1208 703.5 85 689.621 85 672.5C85 655.379 71.1208 641.5 54 641.5C36.8792 641.5 23 655.379 23 672.5C23 689.621 36.8792 703.5 54 703.5Z" fill="#0D9421"/>
<path d="M54 646.5C66.1503 646.5 76 636.65 76 624.5C76 612.35 66.1503 602.5 54 602.5C41.8497 602.5 32 612.35 32 624.5C32 636.65 41.8497 646.5 54 646.5Z" fill="#0D9421"/>
</g>
<defs>
<clipPath id="clip0_27_2">
<rect width="797.5" height="834.5" fill="white"/>
</clipPath>
</defs>
</svg>
